<?xml version="1.0" encoding="iso-8859-1"?>
<!-- Uploaded to: SVG Repo, www.svgrepo.com, Generator: SVG Repo Mixer Tools -->
<svg version="1.1" id="Layer_1" xmlns="http://www.w3.org/2000/svg" xmlns:xlink="http://www.w3.org/1999/xlink" 
	 viewBox="0 0 512 512" xml:space="preserve">
<rect x="11.77" y="11.77" style="fill:#ECF0F1;" width="488.46" height="488.46"/>
<rect x="11.77" y="11.77" style="fill:#2196F3;" width="488.46" height="58.851"/>
<rect x="284.672" y="238.333" style="fill:#B71C1C;" width="160.238" height="188.322"/>
<g>
	<path style="fill:#231F20;" d="M500.23,0H11.77C5.271,0,0,5.271,0,11.77v488.46C0,506.729,5.271,512,11.77,512h488.46
		c6.499,0,11.77-5.271,11.77-11.77V11.77C512,5.271,506.729,0,500.23,0z M23.54,23.54h464.92v35.31H23.54V23.54z M23.54,488.46
		V82.391h464.92V488.46H23.54z"/>
	<path style="fill:#231F20;" d="M444.91,132.401H112.044c-6.499,0-11.77,5.271-11.77,11.77s5.271,11.77,11.77,11.77H444.91
		c6.499,0,11.77-5.271,11.77-11.77S451.41,132.401,444.91,132.401z"/>
	<path style="fill:#231F20;" d="M67.09,155.941h4.154c6.499,0,11.77-5.271,11.77-11.77s-5.271-11.77-11.77-11.77H67.09
		c-6.499,0-11.77,5.271-11.77,11.77S60.59,155.941,67.09,155.941z"/>
	<path style="fill:#231F20;" d="M444.91,179.481H67.09c-6.499,0-11.77,5.271-11.77,11.77s5.271,11.77,11.77,11.77H444.91
		c6.499,0,11.77-5.271,11.77-11.77S451.41,179.481,444.91,179.481z"/>
	<path style="fill:#231F20;" d="M223.47,226.562H67.09c-6.499,0-11.77,5.271-11.77,11.77s5.271,11.77,11.77,11.77h156.38
		c6.499,0,11.77-5.271,11.77-11.77S229.97,226.562,223.47,226.562z"/>
	<path style="fill:#231F20;" d="M223.47,273.642h-2.354c-6.499,0-11.77,5.271-11.77,11.77c0,6.499,5.271,11.77,11.77,11.77h2.354
		c6.499,0,11.77-5.271,11.77-11.77C235.24,278.913,229.97,273.642,223.47,273.642z"/>
	<path style="fill:#231F20;" d="M67.09,297.182h112.634c6.499,0,11.77-5.271,11.77-11.77c0-6.499-5.271-11.77-11.77-11.77H67.09
		c-6.499,0-11.77,5.271-11.77,11.77C55.32,291.912,60.59,297.182,67.09,297.182z"/>
	<path style="fill:#231F20;" d="M223.47,320.723H67.09c-6.499,0-11.77,5.271-11.77,11.77c0,6.499,5.271,11.77,11.77,11.77h156.38
		c6.499,0,11.77-5.271,11.77-11.77C235.24,325.993,229.97,320.723,223.47,320.723z"/>
	<path style="fill:#231F20;" d="M223.47,367.803h-115.2c-6.499,0-11.77,5.271-11.77,11.77s5.271,11.77,11.77,11.77h115.2
		c6.499,0,11.77-5.271,11.77-11.77S229.97,367.803,223.47,367.803z"/>
	<path style="fill:#231F20;" d="M67.09,391.343h1.603c6.499,0,11.77-5.271,11.77-11.77s-5.271-11.77-11.77-11.77H67.09
		c-6.499,0-11.77,5.271-11.77,11.77S60.59,391.343,67.09,391.343z"/>
	<path style="fill:#231F20;" d="M223.47,414.884H67.09c-6.499,0-11.77,5.271-11.77,11.77c0,6.499,5.271,11.77,11.77,11.77h156.38
		c6.499,0,11.77-5.271,11.77-11.77C235.24,420.154,229.97,414.884,223.47,414.884z"/>
	<path style="fill:#231F20;" d="M444.91,226.562H284.674c-6.499,0-11.77,5.271-11.77,11.77v188.322c0,6.499,5.271,11.77,11.77,11.77
		H444.91c6.499,0,11.77-5.271,11.77-11.77V238.332C456.68,231.832,451.41,226.562,444.91,226.562z M433.14,414.884H296.444V250.102
		H433.14V414.884z"/>
</g>
</svg>